Normalized EMG Linear Envelopes
nRows=136
nColumns=4

endheader
time	 med_gas_r	  soleus_r	 tib_ant_r	
2.87482	  0.091712	  0.073070	  0.056395	
2.93731	  0.098181	  0.080145	  0.054509	
2.99981	  0.101040	  0.085072	  0.052350	
3.0623	  0.100903	  0.086981	  0.050831	
3.1248	  0.100616	  0.087233	  0.050927	
3.1873	  0.101503	  0.087631	  0.052431	
3.24979	  0.103187	  0.088175	  0.054319	
3.31229	  0.104567	  0.088129	  0.055554	
3.37478	  0.104624	  0.087874	  0.055643	
3.43728	  0.104034	  0.088183	  0.054616	
3.49978	  0.104039	  0.088991	  0.052494	
3.56227	  0.104437	  0.089648	  0.049503	
3.62477	  0.105260	  0.089779	  0.046619	
3.68726	  0.107582	  0.089956	  0.045103	
3.74976	  0.111744	  0.091515	  0.046393	
3.81226	  0.116948	  0.094995	  0.053198	
3.87475	  0.121262	  0.098940	  0.069027	
3.93725	  0.122135	  0.101201	  0.094512	
3.99974	  0.118468	  0.101369	  0.124713	
4.06224	  0.111507	  0.101284	  0.152627	
4.12474	  0.104409	  0.103061	  0.175700	
4.18723	  0.101569	  0.107016	  0.198209	
4.24973	  0.107248	  0.112123	  0.229293	
4.31222	  0.124269	  0.117898	  0.277805	
4.37472	  0.152673	  0.123883	  0.345304	
4.43722	  0.188478	  0.128031	  0.424041	
4.49971	  0.224850	  0.128250	  0.501239	
4.56221	  0.255809	  0.125230	  0.563141	
4.6247	  0.278725	  0.122607	  0.595961	
4.6872	  0.293264	  0.124420	  0.589379	
4.7497	  0.299815	  0.131391	  0.549013	
4.81219	  0.299602	  0.139332	  0.501655	
4.87469	  0.294911	  0.143086	  0.473650	
4.93718	  0.288890	  0.141834	  0.467222	
4.99968	  0.284325	  0.138342	  0.467926	
5.06218	  0.282998	  0.134863	  0.467559	
5.12467	  0.287925	  0.132550	  0.470520	
5.18717	  0.301843	  0.132190	  0.483613	
5.24966	  0.319829	  0.133590	  0.506225	
5.31216	  0.330904	  0.136419	  0.528008	
5.37466	  0.330816	  0.141837	  0.536850	
5.43715	  0.325134	  0.151684	  0.531890	
5.49965	  0.320289	  0.166258	  0.523085	
5.56214	  0.320629	  0.184021	  0.517647	
5.62464	  0.329687	  0.203026	  0.516691	
5.68714	  0.346050	  0.221024	  0.522904	
5.74963	  0.361871	  0.235360	  0.537515	
5.81213	  0.369893	  0.244344	  0.552820	
5.87462	  0.370514	  0.247168	  0.560093	
5.93712	  0.370750	  0.243412	  0.558664	
5.99962	  0.377313	  0.235947	  0.551068	
6.06211	  0.391112	  0.233458	  0.539793	
6.12461	  0.408223	  0.245318	  0.531044	
6.1871	  0.426126	  0.270978	  0.530403	
6.2496	  0.445602	  0.298457	  0.534803	
6.3121	  0.466592	  0.316354	  0.538380	
6.37459	  0.485948	  0.321865	  0.540634	
6.43709	  0.497106	  0.316927	  0.540827	
6.49958	  0.493821	  0.304932	  0.535988	
6.56208	  0.478684	  0.292251	  0.529234	
6.62458	  0.463506	  0.287172	  0.526465	
6.68707	  0.458014	  0.296582	  0.524223	
6.74957	  0.461788	  0.323686	  0.513329	
6.81206	  0.468886	  0.362819	  0.492693	
6.87456	  0.474734	  0.398170	  0.469254	
6.93706	  0.475278	  0.416290	  0.448861	
6.99955	  0.465940	  0.415710	  0.435205	
7.06205	  0.445867	  0.402637	  0.431802	
7.12454	  0.421103	  0.385752	  0.439982	
7.18704	  0.400979	  0.372400	  0.456911	
7.24954	  0.391042	  0.366686	  0.475513	
7.31203	  0.391466	  0.371241	  0.488947	
7.37453	  0.398321	  0.383774	  0.496858	
7.43702	  0.403333	  0.395713	  0.501545	
7.49952	  0.401189	  0.398830	  0.499897	
7.56202	  0.397822	  0.387023	  0.487060	
7.62451	  0.401943	  0.359273	  0.462779	
7.68701	  0.410968	  0.325471	  0.430819	
7.7495	  0.413306	  0.297667	  0.402239	
7.812	  0.402136	  0.279428	  0.393562	
7.8745	  0.381847	  0.269234	  0.407799	
7.93699	  0.361749	  0.263420	  0.426780	
7.99949	  0.346413	  0.256649	  0.431343	
8.06198	  0.334553	  0.246907	  0.420510	
8.12448	  0.325019	  0.236834	  0.409177	
8.18698	  0.318490	  0.230410	  0.412559	
8.24947	  0.316371	  0.231291	  0.433822	
8.31197	  0.321599	  0.241677	  0.466237	
8.37446	  0.335784	  0.260694	  0.501988	
8.43696	  0.355690	  0.283435	  0.534073	
8.49946	  0.374909	  0.302865	  0.554232	
8.56195	  0.386668	  0.314986	  0.553638	
8.62445	  0.386866	  0.319610	  0.528868	
8.68694	  0.377239	  0.318108	  0.490363	
8.74944	  0.363956	  0.316569	  0.459008	
8.81194	  0.352029	  0.321470	  0.448313	
8.87443	  0.342189	  0.325378	  0.453551	
8.93693	  0.333292	  0.313237	  0.460698	
8.99942	  0.325058	  0.286354	  0.462041	
9.06192	  0.317835	  0.264442	  0.460242	
9.12442	  0.312466	  0.264505	  0.458594	
9.18691	  0.311720	  0.285594	  0.452937	
9.24941	  0.319932	  0.311942	  0.437949	
9.3119	  0.338366	  0.329366	  0.416583	
9.3744	  0.361494	  0.337074	  0.397915	
9.4369	  0.379403	  0.343054	  0.388023	
9.49939	  0.384376	  0.354259	  0.383766	
9.56189	  0.376999	  0.371728	  0.377247	
9.62438	  0.365225	  0.390289	  0.367473	
9.68688	  0.355094	  0.403774	  0.359466	
9.74938	  0.344980	  0.410922	  0.353075	
9.81187	  0.331623	  0.414325	  0.345429	
9.87437	  0.317970	  0.415774	  0.341419	
9.93686	  0.312321	  0.416684	  0.349706	
9.99936	  0.321294	  0.422139	  0.370400	
10.0619	  0.342697	  0.437601	  0.393162	
10.1244	  0.364220	  0.457676	  0.405421	
10.1868	  0.371874	  0.462951	  0.398903	
10.2493	  0.360084	  0.435510	  0.372014	
10.3118	  0.332057	  0.375645	  0.334077	
10.3743	  0.296188	  0.298166	  0.304715	
10.4368	  0.263577	  0.220348	  0.295954	
10.4993	  0.239758	  0.156764	  0.296893	
10.5618	  0.219957	  0.114752	  0.289770	
10.6243	  0.198115	  0.092218	  0.274028	
10.6868	  0.174963	  0.082904	  0.260835	
10.7493	  0.155644	  0.081326	  0.255667	
10.8118	  0.143781	  0.083311	  0.257912	
10.8743	  0.137967	  0.085778	  0.265597	
10.9368	  0.135081	  0.087223	  0.273270	
10.9993	  0.136841	  0.087565	  0.274678	
11.0618	  0.146489	  0.087295	  0.269932	
11.1243	  0.157688	  0.087461	  0.262261	
11.1868	  0.156303	  0.089304	  0.248820	
11.2493	  0.136001	  0.092762	  0.223234	
11.3118	  0.103644	  0.096778	  0.186741	
